<?xml version="1.0" standalone="no"?>
<!DOCTYPE svg PUBLIC "-//W3C//DTD SVG 20010904//EN"
 "http://www.w3.org/TR/2001/REC-SVG-20010904/DTD/svg10.dtd">
<svg version="1.0" xmlns="http://www.w3.org/2000/svg"
 width="260.000000pt" height="260.000000pt" viewBox="0 0 260.000000 260.000000"
 preserveAspectRatio="xMidYMid meet">
<metadata>
Created by potrace 1.14, written by Peter Selinger 2001-2017
</metadata>
<g transform="translate(0.000000,260.000000) scale(0.100000,-0.100000)"
fill="#000000" stroke="none">
<path d="M2331 2483 c-27 -5 -604 -561 -625 -602 -26 -50 -78 -244 -71 -268
11 -45 42 -48 161 -17 60 15 119 32 131 38 39 20 584 558 604 597 26 52 24 86
-11 155 -40 80 -107 114 -189 97z m97 -89 c16 -11 22 -25 22 -52 0 -35 -10
-47 -157 -192 -430 -422 -390 -388 -472 -410 -40 -12 -75 -19 -77 -17 -2 2 5
34 16 73 17 59 28 76 77 125 32 30 157 153 279 272 201 197 224 217 255 217
19 0 45 -7 57 -16z"/>
<path d="M540 1479 c-47 -27 -156 -89 -243 -137 -115 -63 -163 -95 -173 -115
-21 -39 -24 -1107 -4 -1132 26 -31 69 -17 249 84 212 119 256 141 275 141 8 0
130 -56 270 -125 140 -69 262 -125 270 -125 9 0 28 8 43 18 14 9 123 71 242
138 146 81 220 128 228 145 10 18 13 152 13 550 0 555 -2 586 -46 603 -10 4
-101 -42 -251 -125 l-234 -132 -92 43 c-51 24 -166 80 -257 125 -91 45 -174
85 -185 88 -13 4 -49 -11 -105 -44z m1080 -541 l-1 -483 -186 -103 c-103 -57
-189 -99 -192 -94 -3 6 -6 223 -6 484 l1 473 179 102 c99 55 186 102 193 102
9 1 12 -102 12 -481z m-1040 -6 c0 -444 -1 -480 -17 -494 -19 -16 -314 -182
-345 -193 -17 -7 -18 20 -18 476 l0 484 183 102 c100 56 185 102 190 103 4 0
7 -215 7 -478z m340 378 l200 -100 0 -480 c0 -451 -1 -480 -17 -479 -10 0
-106 44 -213 97 l-195 97 -3 483 c-2 426 0 482 13 482 8 0 105 -45 215 -100z"/>
</g>
</svg>
